{
    "asset" : {
        "generator" : "Khronos glTF Blender I/O v3.4.50",
        "version" : "2.0"
    },
    "scene" : 0,
    "scenes" : [
        {
            "name" : "Scene",
            "nodes" : [
                0,
                1,
                2,
                3,
                4,
                5,
                6,
                7,
                8
            ]
        }
    ],
    "nodes" : [
        {
            "mesh" : 0,
            "name" : "backWall",
            "rotation" : [
                0.5,
                -0.4999999403953552,
                -0.5,
                0.5000000596046448
            ],
            "scale" : [
                1,
                1,
                1.6665730476379395
            ],
            "translation" : [
                0.006009995937347412,
                1.7912168502807617,
                -1.1354432106018066
            ]
        },
        {
            "mesh" : 1,
            "name" : "leftWall",
            "rotation" : [
                0.7071068286895752,
                -0.7071068286895752,
                0,
                5.338509012631221e-08
            ],
            "scale" : [
                1,
                1,
                1.1699998378753662
            ],
            "translation" : [
                -1.3383238315582275,
                1.7923743724822998,
                -0.21373826265335083
            ]
        },
        {
            "mesh" : 2,
            "name" : "rightWall",
            "rotation" : [
                0.7071068286895752,
                -0.7071068286895752,
                0,
                5.338509012631221e-08
            ],
            "scale" : [
                1,
                1.030590534210205,
                1.1699998378753662
            ],
            "translation" : [
                1.340851902961731,
                1.7875802516937256,
                -0.20619386434555054
            ]
        },
        {
            "mesh" : 3,
            "name" : "floor",
            "rotation" : [
                0,
                -0.7071067094802856,
                0,
                0.7071068286895752
            ],
            "scale" : [
                0.8576557636260986,
                1,
                0.7307422757148743
            ],
            "translation" : [
                0.006852269172668457,
                -0.4500000476837158,
                -0.20658332109451294
            ]
        },
        {
            "mesh" : 4,
            "name" : "ceiling",
            "rotation" : [
                0,
                -0.7071067094802856,
                0,
                0.7071068286895752
            ],
            "scale" : [
                0.8576557636260986,
                1,
                0.7299896478652954
            ],
            "translation" : [
                0.006852269172668457,
                4.034271240234375,
                -0.20658332109451294
            ]
        },
        {
            "mesh" : 5,
            "name" : "divider",
            "rotation" : [
                0,
                -0.7071067094802856,
                0,
                0.7071068286895752
            ],
            "scale" : [
                0.8576557636260986,
                2.086354970932007,
                0.7269172072410583
            ],
            "translation" : [
                0.006852269172668457,
                1.133195161819458,
                -0.20658332109451294
            ]
        },
        {
            "mesh" : 6,
            "name" : "fridgeDoorLeft",
            "rotation" : [
                0.5,
                -0.4999999403953552,
                -0.5,
                0.5000000596046448
            ],
            "scale" : [
                1.258136510848999,
                1.5,
                0.3586620092391968
            ],
            "translation" : [
                -0.6966805458068848,
                2.6178579330444336,
                0.8468067646026611
            ]
        },
        {
            "mesh" : 7,
            "name" : "fridgeDoorRight",
            "rotation" : [
                -0.5000000596046448,
                -0.5,
                0.4999999403953552,
                0.5
            ],
            "scale" : [
                -1.258136510848999,
                -1.5,
                -0.3586620092391968
            ],
            "translation" : [
                0.6942330598831177,
                2.6178579330444336,
                0.8468067646026611
            ]
        },
        {
            "mesh" : 8,
            "name" : "freezerDoor",
            "rotation" : [
                -0.7071068286895752,
                0,
                0,
                0.7071068286895752
            ],
            "scale" : [
                -1.2040390968322754,
                -1.5,
                -0.4253406524658203
            ],
            "translation" : [
                0.0036200284957885742,
                0.33769965171813965,
                0.8468067646026611
            ]
        }
    ],
    "materials" : [
        {
            "doubleSided" : true,
            "name" : "Material.001",
            "pbrMetallicRoughness" : {}
        }
    ],
    "meshes" : [
        {
            "name" : "Cube.004",
            "primitives" : [
                {
                    "attributes" : {
                        "POSITION" : 0,
                        "TEXCOORD_0" : 1,
                        "NORMAL" : 2
                    },
                    "indices" : 3
                }
            ]
        },
        {
            "name" : "Cube.007",
            "primitives" : [
                {
                    "attributes" : {
                        "POSITION" : 4,
                        "TEXCOORD_0" : 5,
                        "NORMAL" : 6
                    },
                    "indices" : 3
                }
            ]
        },
        {
            "name" : "Cube.008",
            "primitives" : [
                {
                    "attributes" : {
                        "POSITION" : 7,
                        "TEXCOORD_0" : 8,
                        "NORMAL" : 9
                    },
                    "indices" : 3
                }
            ]
        },
        {
            "name" : "Cube.009",
            "primitives" : [
                {
                    "attributes" : {
                        "POSITION" : 10,
                        "TEXCOORD_0" : 11,
                        "NORMAL" : 12
                    },
                    "indices" : 3
                }
            ]
        },
        {
            "name" : "Cube.010",
            "primitives" : [
                {
                    "attributes" : {
                        "POSITION" : 13,
                        "TEXCOORD_0" : 14,
                        "NORMAL" : 15
                    },
                    "indices" : 3
                }
            ]
        },
        {
            "name" : "Cube.012",
            "primitives" : [
                {
                    "attributes" : {
                        "POSITION" : 16,
                        "TEXCOORD_0" : 17,
                        "NORMAL" : 18
                    },
                    "indices" : 3
                }
            ]
        },
        {
            "name" : "Cube.013",
            "primitives" : [
                {
                    "attributes" : {
                        "POSITION" : 19,
                        "TEXCOORD_0" : 20,
                        "NORMAL" : 21
                    },
                    "indices" : 22,
                    "material" : 0
                }
            ]
        },
        {
            "name" : "Cube.001",
            "primitives" : [
                {
                    "attributes" : {
                        "POSITION" : 23,
                        "TEXCOORD_0" : 24,
                        "NORMAL" : 25
                    },
                    "indices" : 22,
                    "material" : 0
                }
            ]
        },
        {
            "name" : "Cube.002",
            "primitives" : [
                {
                    "attributes" : {
                        "POSITION" : 26,
                        "TEXCOORD_0" : 27,
                        "NORMAL" : 28
                    },
                    "indices" : 22,
                    "material" : 0
                }
            ]
        }
    ],
    "accessors" : [
        {
            "bufferView" : 0,
            "componentType" : 5126,
            "count" : 24,
            "max" : [
                2.2868194580078125,
                0.061637163162231445,
                0.840423047542572
            ],
            "min" : [
                -2.2868194580078125,
                -0.061637163162231445,
                -0.840423047542572
            ],
            "type" : "VEC3"
        },
        {
            "bufferView" : 1,
            "componentType" : 5126,
            "count" : 24,
            "type" : "VEC2"
        },
        {
            "bufferView" : 2,
            "componentType" : 5126,
            "count" : 24,
            "type" : "VEC3"
        },
        {
            "bufferView" : 3,
            "componentType" : 5123,
            "count" : 36,
            "type" : "SCALAR"
        },
        {
            "bufferView" : 4,
            "componentType" : 5126,
            "count" : 24,
            "max" : [
                2.2868194580078125,
                0.061637163162231445,
                0.840423047542572
            ],
            "min" : [
                -2.2868194580078125,
                -0.061637163162231445,
                -0.840423047542572
            ],
            "type" : "VEC3"
        },
        {
            "bufferView" : 5,
            "componentType" : 5126,
            "count" : 24,
            "type" : "VEC2"
        },
        {
            "bufferView" : 6,
            "componentType" : 5126,
            "count" : 24,
            "type" : "VEC3"
        },
        {
            "bufferView" : 7,
            "componentType" : 5126,
            "count" : 24,
            "max" : [
                2.2868194580078125,
                0.061637163162231445,
                0.840423047542572
            ],
            "min" : [
                -2.2868194580078125,
                -0.061637163162231445,
                -0.840423047542572
            ],
            "type" : "VEC3"
        },
        {
            "bufferView" : 8,
            "componentType" : 5126,
            "count" : 24,
            "type" : "VEC2"
        },
        {
            "bufferView" : 9,
            "componentType" : 5126,
            "count" : 24,
            "type" : "VEC3"
        },
        {
            "bufferView" : 10,
            "componentType" : 5126,
            "count" : 24,
            "max" : [
                1.1497777700424194,
                0.04626476764678955,
                1.9175784587860107
            ],
            "min" : [
                -1.1497777700424194,
                -0.04626476764678955,
                -1.9175784587860107
            ],
            "type" : "VEC3"
        },
        {
            "bufferView" : 11,
            "componentType" : 5126,
            "count" : 24,
            "type" : "VEC2"
        },
        {
            "bufferView" : 12,
            "componentType" : 5126,
            "count" : 24,
            "type" : "VEC3"
        },
        {
            "bufferView" : 13,
            "componentType" : 5126,
            "count" : 24,
            "max" : [
                1.1497777700424194,
                0.04626476764678955,
                1.9175784587860107
            ],
            "min" : [
                -1.1497777700424194,
                -0.04626476764678955,
                -1.9175784587860107
            ],
            "type" : "VEC3"
        },
        {
            "bufferView" : 14,
            "componentType" : 5126,
            "count" : 24,
            "type" : "VEC2"
        },
        {
            "bufferView" : 15,
            "componentType" : 5126,
            "count" : 24,
            "type" : "VEC3"
        },
        {
            "bufferView" : 16,
            "componentType" : 5126,
            "count" : 24,
            "max" : [
                1.1497777700424194,
                0.04626476764678955,
                1.9175784587860107
            ],
            "min" : [
                -1.1497777700424194,
                -0.04626476764678955,
                -1.9175784587860107
            ],
            "type" : "VEC3"
        },
        {
            "bufferView" : 17,
            "componentType" : 5126,
            "count" : 24,
            "type" : "VEC2"
        },
        {
            "bufferView" : 18,
            "componentType" : 5126,
            "count" : 24,
            "type" : "VEC3"
        },
        {
            "bufferView" : 19,
            "componentType" : 5126,
            "count" : 664,
            "max" : [
                1.1497777700424194,
                0.18636184930801392,
                1.9175784587860107
            ],
            "min" : [
                -1.1497777700424194,
                -0.04626476764678955,
                -1.9175784587860107
            ],
            "type" : "VEC3"
        },
        {
            "bufferView" : 20,
            "componentType" : 5126,
            "count" : 664,
            "type" : "VEC2"
        },
        {
            "bufferView" : 21,
            "componentType" : 5126,
            "count" : 664,
            "type" : "VEC3"
        },
        {
            "bufferView" : 22,
            "componentType" : 5123,
            "count" : 1188,
            "type" : "SCALAR"
        },
        {
            "bufferView" : 23,
            "componentType" : 5126,
            "count" : 664,
            "max" : [
                1.1497777700424194,
                0.18636184930801392,
                1.9175784587860107
            ],
            "min" : [
                -1.1497777700424194,
                -0.04626476764678955,
                -1.9175784587860107
            ],
            "type" : "VEC3"
        },
        {
            "bufferView" : 24,
            "componentType" : 5126,
            "count" : 664,
            "type" : "VEC2"
        },
        {
            "bufferView" : 25,
            "componentType" : 5126,
            "count" : 664,
            "type" : "VEC3"
        },
        {
            "bufferView" : 26,
            "componentType" : 5126,
            "count" : 664,
            "max" : [
                1.1497777700424194,
                0.18636184930801392,
                1.9175784587860107
            ],
            "min" : [
                -1.1497777700424194,
                -0.04626476764678955,
                -1.9175784587860107
            ],
            "type" : "VEC3"
        },
        {
            "bufferView" : 27,
            "componentType" : 5126,
            "count" : 664,
            "type" : "VEC2"
        },
        {
            "bufferView" : 28,
            "componentType" : 5126,
            "count" : 664,
            "type" : "VEC3"
        }
    ],
    "bufferViews" : [
        {
            "buffer" : 0,
            "byteLength" : 288,
            "byteOffset" : 0,
            "target" : 34962
        },
        {
            "buffer" : 0,
            "byteLength" : 192,
            "byteOffset" : 288,
            "target" : 34962
        },
        {
            "buffer" : 0,
            "byteLength" : 288,
            "byteOffset" : 480,
            "target" : 34962
        },
        {
            "buffer" : 0,
            "byteLength" : 72,
            "byteOffset" : 768,
            "target" : 34963
        },
        {
            "buffer" : 0,
            "byteLength" : 288,
            "byteOffset" : 840,
            "target" : 34962
        },
        {
            "buffer" : 0,
            "byteLength" : 192,
            "byteOffset" : 1128,
            "target" : 34962
        },
        {
            "buffer" : 0,
            "byteLength" : 288,
            "byteOffset" : 1320,
            "target" : 34962
        },
        {
            "buffer" : 0,
            "byteLength" : 288,
            "byteOffset" : 1608,
            "target" : 34962
        },
        {
            "buffer" : 0,
            "byteLength" : 192,
            "byteOffset" : 1896,
            "target" : 34962
        },
        {
            "buffer" : 0,
            "byteLength" : 288,
            "byteOffset" : 2088,
            "target" : 34962
        },
        {
            "buffer" : 0,
            "byteLength" : 288,
            "byteOffset" : 2376,
            "target" : 34962
        },
        {
            "buffer" : 0,
            "byteLength" : 192,
            "byteOffset" : 2664,
            "target" : 34962
        },
        {
            "buffer" : 0,
            "byteLength" : 288,
            "byteOffset" : 2856,
            "target" : 34962
        },
        {
            "buffer" : 0,
            "byteLength" : 288,
            "byteOffset" : 3144,
            "target" : 34962
        },
        {
            "buffer" : 0,
            "byteLength" : 192,
            "byteOffset" : 3432,
            "target" : 34962
        },
        {
            "buffer" : 0,
            "byteLength" : 288,
            "byteOffset" : 3624,
            "target" : 34962
        },
        {
            "buffer" : 0,
            "byteLength" : 288,
            "byteOffset" : 3912,
            "target" : 34962
        },
        {
            "buffer" : 0,
            "byteLength" : 192,
            "byteOffset" : 4200,
            "target" : 34962
        },
        {
            "buffer" : 0,
            "byteLength" : 288,
            "byteOffset" : 4392,
            "target" : 34962
        },
        {
            "buffer" : 0,
            "byteLength" : 7968,
            "byteOffset" : 4680,
            "target" : 34962
        },
        {
            "buffer" : 0,
            "byteLength" : 5312,
            "byteOffset" : 12648,
            "target" : 34962
        },
        {
            "buffer" : 0,
            "byteLength" : 7968,
            "byteOffset" : 17960,
            "target" : 34962
        },
        {
            "buffer" : 0,
            "byteLength" : 2376,
            "byteOffset" : 25928,
            "target" : 34963
        },
        {
            "buffer" : 0,
            "byteLength" : 7968,
            "byteOffset" : 28304,
            "target" : 34962
        },
        {
            "buffer" : 0,
            "byteLength" : 5312,
            "byteOffset" : 36272,
            "target" : 34962
        },
        {
            "buffer" : 0,
            "byteLength" : 7968,
            "byteOffset" : 41584,
            "target" : 34962
        },
        {
            "buffer" : 0,
            "byteLength" : 7968,
            "byteOffset" : 49552,
            "target" : 34962
        },
        {
            "buffer" : 0,
            "byteLength" : 5312,
            "byteOffset" : 57520,
            "target" : 34962
        },
        {
            "buffer" : 0,
            "byteLength" : 7968,
            "byteOffset" : 62832,
            "target" : 34962
        }
    ],
    "buffers" : [
        {
            "byteLength" : 70800,
            "uri" : "data:application/octet-stream;base64,"
        }
    ]
}
