{
    "asset" : {
        "generator" : "Khronos glTF Blender I/O v3.4.50",
        "version" : "2.0"
    },
    "extensionsUsed" : [
        "KHR_materials_clearcoat"
    ],
    "scene" : 0,
    "scenes" : [
        {
            "name" : "Scene",
            "nodes" : [
                0,
                1,
                2,
                3,
                4
            ]
        }
    ],
    "nodes" : [
        {
            "mesh" : 0,
            "name" : "floor",
            "rotation" : [
                0,
                1,
                0,
                0
            ],
            "scale" : [
                13.122845649719238,
                0.0720355361700058,
                10.003622055053711
            ]
        },
        {
            "mesh" : 1,
            "name" : "window",
            "rotation" : [
                0,
                0,
                -1,
                0
            ],
            "scale" : [
                -2.5651469230651855,
                -1.3589593172073364,
                -0.23893418908119202
            ],
            "translation" : [
                -4.6193599700927734e-05,
                3.9492580890655518,
                -10.239001274108887
            ]
        },
        {
            "mesh" : 2,
            "name" : "counter",
            "scale" : [
                13.121306419372559,
                1.20560884475708,
                1
            ],
            "translation" : [
                -4.6193599700927734e-05,
                1.3098433017730713,
                -8.995685577392578
            ]
        },
        {
            "mesh" : 3,
            "name" : "stool_0",
            "rotation" : [
                0,
                1,
                0,
                0
            ],
            "scale" : [
                -0.5173531174659729,
                -0.08304297924041748,
                -0.39107632637023926
            ],
            "translation" : [
                11.282293319702148,
                1.770938515663147,
                -2.1514480113983154
            ]
        },
        {
            "mesh" : 4,
            "name" : "stool_1",
            "rotation" : [
                0,
                -0.978133499622345,
                0,
                0.2079782336950302
            ],
            "scale" : [
                -0.5173531174659729,
                -0.08304297924041748,
                -0.39107635617256165
            ],
            "translation" : [
                12.006806373596191,
                1.770938515663147,
                -5.558753967285156
            ]
        }
    ],
    "materials" : [
        {
            "doubleSided" : true,
            "emissiveFactor" : [
                0.11215168982744217,
                0.07040366530418396,
                0
            ],
            "extensions" : {
                "KHR_materials_clearcoat" : {
                    "clearcoatFactor" : 0.5779816508293152,
                    "clearcoatRoughnessFactor" : 0.07339449226856232
                }
            },
            "name" : "floor",
            "pbrMetallicRoughness" : {
                "baseColorFactor" : [
                    0.05582438409328461,
                    0.039903849363327026,
                    0.013252374716103077,
                    1
                ],
                "metallicFactor" : 0,
                "roughnessFactor" : 0.5
            }
        },
        {
            "doubleSided" : true,
            "name" : "window",
            "pbrMetallicRoughness" : {
                "baseColorFactor" : [
                    0.800000011920929,
                    0.800000011920929,
                    0.800000011920929,
                    1
                ],
                "metallicFactor" : 0,
                "roughnessFactor" : 0.5
            }
        },
        {
            "doubleSided" : true,
            "name" : "counter",
            "pbrMetallicRoughness" : {
                "baseColorFactor" : [
                    0.3001633584499359,
                    0.42621272802352905,
                    0.40230488777160645,
                    1
                ],
                "metallicFactor" : 0,
                "roughnessFactor" : 0.5
            }
        },
        {
            "doubleSided" : true,
            "name" : "sink",
            "pbrMetallicRoughness" : {
                "baseColorFactor" : [
                    0.19711990654468536,
                    0.19711990654468536,
                    0.19711990654468536,
                    1
                ],
                "roughnessFactor" : 0.5183486342430115
            }
        },
        {
            "doubleSided" : true,
            "name" : "stool",
            "pbrMetallicRoughness" : {
                "baseColorFactor" : [
                    0.04720737412571907,
                    0.03382595255970955,
                    0.003450515680015087,
                    1
                ],
                "metallicFactor" : 0,
                "roughnessFactor" : 0.5
            }
        }
    ],
    "meshes" : [
        {
            "name" : "Cube",
            "primitives" : [
                {
                    "attributes" : {
                        "POSITION" : 0,
                        "TEXCOORD_0" : 1,
                        "NORMAL" : 2
                    },
                    "indices" : 3,
                    "material" : 0
                }
            ]
        },
        {
            "name" : "Cube.001",
            "primitives" : [
                {
                    "attributes" : {
                        "POSITION" : 4,
                        "TEXCOORD_0" : 5,
                        "NORMAL" : 6
                    },
                    "indices" : 7,
                    "material" : 1
                }
            ]
        },
        {
            "name" : "Cube.002",
            "primitives" : [
                {
                    "attributes" : {
                        "POSITION" : 8,
                        "TEXCOORD_0" : 9,
                        "NORMAL" : 10
                    },
                    "indices" : 11,
                    "material" : 2
                },
                {
                    "attributes" : {
                        "POSITION" : 12,
                        "TEXCOORD_0" : 13,
                        "NORMAL" : 14
                    },
                    "indices" : 15,
                    "material" : 3
                }
            ]
        },
        {
            "name" : "Cube.005",
            "primitives" : [
                {
                    "attributes" : {
                        "POSITION" : 16,
                        "TEXCOORD_0" : 17,
                        "NORMAL" : 18
                    },
                    "indices" : 19,
                    "material" : 4
                }
            ]
        },
        {
            "name" : "Cube.006",
            "primitives" : [
                {
                    "attributes" : {
                        "POSITION" : 20,
                        "TEXCOORD_0" : 21,
                        "NORMAL" : 22
                    },
                    "indices" : 19,
                    "material" : 4
                }
            ]
        }
    ],
    "accessors" : [
        {
            "bufferView" : 0,
            "componentType" : 5126,
            "count" : 12197,
            "max" : [
                1,
                1.399999976158142,
                1
            ],
            "min" : [
                -1,
                -1,
                -1
            ],
            "type" : "VEC3"
        },
        {
            "bufferView" : 1,
            "componentType" : 5126,
            "count" : 12197,
            "type" : "VEC2"
        },
        {
            "bufferView" : 2,
            "componentType" : 5126,
            "count" : 12197,
            "type" : "VEC3"
        },
        {
            "bufferView" : 3,
            "componentType" : 5123,
            "count" : 21702,
            "type" : "SCALAR"
        },
        {
            "bufferView" : 4,
            "componentType" : 5126,
            "count" : 156,
            "max" : [
                1,
                1,
                1
            ],
            "min" : [
                -1,
                -1,
                -1
            ],
            "type" : "VEC3"
        },
        {
            "bufferView" : 5,
            "componentType" : 5126,
            "count" : 156,
            "type" : "VEC2"
        },
        {
            "bufferView" : 6,
            "componentType" : 5126,
            "count" : 156,
            "type" : "VEC3"
        },
        {
            "bufferView" : 7,
            "componentType" : 5123,
            "count" : 264,
            "type" : "SCALAR"
        },
        {
            "bufferView" : 8,
            "componentType" : 5126,
            "count" : 102,
            "max" : [
                0.7914376854896545,
                1,
                9.23122787475586
            ],
            "min" : [
                -1,
                -1,
                -1
            ],
            "type" : "VEC3"
        },
        {
            "bufferView" : 9,
            "componentType" : 5126,
            "count" : 102,
            "type" : "VEC2"
        },
        {
            "bufferView" : 10,
            "componentType" : 5126,
            "count" : 102,
            "type" : "VEC3"
        },
        {
            "bufferView" : 11,
            "componentType" : 5123,
            "count" : 216,
            "type" : "SCALAR"
        },
        {
            "bufferView" : 12,
            "componentType" : 5126,
            "count" : 78,
            "max" : [
                0.16796326637268066,
                1,
                1
            ],
            "min" : [
                -0.1679999977350235,
                0.22393059730529785,
                -1
            ],
            "type" : "VEC3"
        },
        {
            "bufferView" : 13,
            "componentType" : 5126,
            "count" : 78,
            "type" : "VEC2"
        },
        {
            "bufferView" : 14,
            "componentType" : 5126,
            "count" : 78,
            "type" : "VEC3"
        },
        {
            "bufferView" : 15,
            "componentType" : 5123,
            "count" : 156,
            "type" : "SCALAR"
        },
        {
            "bufferView" : 16,
            "componentType" : 5126,
            "count" : 662,
            "max" : [
                1,
                20.098325729370117,
                2.3294570446014404
            ],
            "min" : [
                -1,
                -2.1113357543945312,
                -2.3294570446014404
            ],
            "type" : "VEC3"
        },
        {
            "bufferView" : 17,
            "componentType" : 5126,
            "count" : 662,
            "type" : "VEC2"
        },
        {
            "bufferView" : 18,
            "componentType" : 5126,
            "count" : 662,
            "type" : "VEC3"
        },
        {
            "bufferView" : 19,
            "componentType" : 5123,
            "count" : 1104,
            "type" : "SCALAR"
        },
        {
            "bufferView" : 20,
            "componentType" : 5126,
            "count" : 662,
            "max" : [
                1,
                20.098325729370117,
                2.3294570446014404
            ],
            "min" : [
                -1,
                -2.1113357543945312,
                -2.3294570446014404
            ],
            "type" : "VEC3"
        },
        {
            "bufferView" : 21,
            "componentType" : 5126,
            "count" : 662,
            "type" : "VEC2"
        },
        {
            "bufferView" : 22,
            "componentType" : 5126,
            "count" : 662,
            "type" : "VEC3"
        }
    ],
    "bufferViews" : [
        {
            "buffer" : 0,
            "byteLength" : 146364,
            "byteOffset" : 0,
            "target" : 34962
        },
        {
            "buffer" : 0,
            "byteLength" : 97576,
            "byteOffset" : 146364,
            "target" : 34962
        },
        {
            "buffer" : 0,
            "byteLength" : 146364,
            "byteOffset" : 243940,
            "target" : 34962
        },
        {
            "buffer" : 0,
            "byteLength" : 43404,
            "byteOffset" : 390304,
            "target" : 34963
        },
        {
            "buffer" : 0,
            "byteLength" : 1872,
            "byteOffset" : 433708,
            "target" : 34962
        },
        {
            "buffer" : 0,
            "byteLength" : 1248,
            "byteOffset" : 435580,
            "target" : 34962
        },
        {
            "buffer" : 0,
            "byteLength" : 1872,
            "byteOffset" : 436828,
            "target" : 34962
        },
        {
            "buffer" : 0,
            "byteLength" : 528,
            "byteOffset" : 438700,
            "target" : 34963
        },
        {
            "buffer" : 0,
            "byteLength" : 1224,
            "byteOffset" : 439228,
            "target" : 34962
        },
        {
            "buffer" : 0,
            "byteLength" : 816,
            "byteOffset" : 440452,
            "target" : 34962
        },
        {
            "buffer" : 0,
            "byteLength" : 1224,
            "byteOffset" : 441268,
            "target" : 34962
        },
        {
            "buffer" : 0,
            "byteLength" : 432,
            "byteOffset" : 442492,
            "target" : 34963
        },
        {
            "buffer" : 0,
            "byteLength" : 936,
            "byteOffset" : 442924,
            "target" : 34962
        },
        {
            "buffer" : 0,
            "byteLength" : 624,
            "byteOffset" : 443860,
            "target" : 34962
        },
        {
            "buffer" : 0,
            "byteLength" : 936,
            "byteOffset" : 444484,
            "target" : 34962
        },
        {
            "buffer" : 0,
            "byteLength" : 312,
            "byteOffset" : 445420,
            "target" : 34963
        },
        {
            "buffer" : 0,
            "byteLength" : 7944,
            "byteOffset" : 445732,
            "target" : 34962
        },
        {
            "buffer" : 0,
            "byteLength" : 5296,
            "byteOffset" : 453676,
            "target" : 34962
        },
        {
            "buffer" : 0,
            "byteLength" : 7944,
            "byteOffset" : 458972,
            "target" : 34962
        },
        {
            "buffer" : 0,
            "byteLength" : 2208,
            "byteOffset" : 466916,
            "target" : 34963
        },
        {
            "buffer" : 0,
            "byteLength" : 7944,
            "byteOffset" : 469124,
            "target" : 34962
        },
        {
            "buffer" : 0,
            "byteLength" : 5296,
            "byteOffset" : 477068,
            "target" : 34962
        },
        {
            "buffer" : 0,
            "byteLength" : 7944,
            "byteOffset" : 482364,
            "target" : 34962
        }
    ],
    "buffers" : [
        {
            "byteLength" : 490308,
            "uri" : "data:application/octet-stream;base64,"
        }
    ]
}
