{
    "asset" : {
        "generator" : "Khronos glTF Blender I/O v3.4.50",
        "version" : "2.0"
    },
    "scene" : 0,
    "scenes" : [
        {
            "name" : "Scene",
            "nodes" : [
                0,
                1,
                2,
                3,
                4
            ]
        }
    ],
    "nodes" : [
        {
            "mesh" : 0,
            "name" : "struct",
            "rotation" : [
                0,
                -0.7073894739151001,
                0,
                0.7068240642547607
            ],
            "scale" : [
                11.091797828674316,
                0.957911491394043,
                0.8453271389007568
            ],
            "translation" : [
                9.975113868713379,
                -1.5826849937438965,
                5.96208381652832
            ]
        },
        {
            "mesh" : 1,
            "name" : "LL",
            "rotation" : [
                0,
                -0.7073894739151001,
                0,
                0.7068240642547607
            ],
            "scale" : [
                11.091797828674316,
                0.957911491394043,
                0.8453271389007568
            ],
            "translation" : [
                -2.3416171073913574,
                -0.12622380256652832,
                0.8094699382781982
            ]
        },
        {
            "mesh" : 2,
            "name" : "LM",
            "rotation" : [
                0,
                -0.7073894739151001,
                0,
                0.7068240642547607
            ],
            "scale" : [
                11.091797828674316,
                0.957911491394043,
                0.8453271389007568
            ],
            "translation" : [
                -1.2257236242294312,
                -0.12622380256652832,
                0.8103625774383545
            ]
        },
        {
            "mesh" : 3,
            "name" : "RM",
            "rotation" : [
                0,
                -0.7073894739151001,
                0,
                0.7068240642547607
            ],
            "scale" : [
                11.091797828674316,
                0.957911491394043,
                0.8453271389007568
            ],
            "translation" : [
                1.2423560619354248,
                -0.12622356414794922,
                0.8123359680175781
            ]
        },
        {
            "mesh" : 4,
            "name" : "RR",
            "rotation" : [
                0,
                -0.7073894739151001,
                0,
                0.7068240642547607
            ],
            "scale" : [
                11.091797828674316,
                0.957911491394043,
                0.8453271389007568
            ],
            "translation" : [
                2.358248233795166,
                -0.12622356414794922,
                0.8132267594337463
            ]
        }
    ],
    "animations" : [
        {
            "channels" : [
                {
                    "sampler" : 0,
                    "target" : {
                        "node" : 1,
                        "path" : "rotation"
                    }
                },
                {
                    "sampler" : 1,
                    "target" : {
                        "node" : 1,
                        "path" : "translation"
                    }
                }
            ],
            "name" : "LLAction",
            "samplers" : [
                {
                    "input" : 28,
                    "interpolation" : "LINEAR",
                    "output" : 29
                },
                {
                    "input" : 28,
                    "interpolation" : "LINEAR",
                    "output" : 30
                }
            ]
        },
        {
            "channels" : [
                {
                    "sampler" : 0,
                    "target" : {
                        "node" : 2,
                        "path" : "rotation"
                    }
                },
                {
                    "sampler" : 1,
                    "target" : {
                        "node" : 2,
                        "path" : "translation"
                    }
                }
            ],
            "name" : "LMAction",
            "samplers" : [
                {
                    "input" : 28,
                    "interpolation" : "LINEAR",
                    "output" : 31
                },
                {
                    "input" : 28,
                    "interpolation" : "LINEAR",
                    "output" : 32
                }
            ]
        },
        {
            "channels" : [
                {
                    "sampler" : 0,
                    "target" : {
                        "node" : 3,
                        "path" : "rotation"
                    }
                },
                {
                    "sampler" : 1,
                    "target" : {
                        "node" : 3,
                        "path" : "translation"
                    }
                }
            ],
            "name" : "RMAction",
            "samplers" : [
                {
                    "input" : 28,
                    "interpolation" : "LINEAR",
                    "output" : 33
                },
                {
                    "input" : 28,
                    "interpolation" : "LINEAR",
                    "output" : 34
                }
            ]
        },
        {
            "channels" : [
                {
                    "sampler" : 0,
                    "target" : {
                        "node" : 4,
                        "path" : "translation"
                    }
                },
                {
                    "sampler" : 1,
                    "target" : {
                        "node" : 4,
                        "path" : "rotation"
                    }
                }
            ],
            "name" : "RRAction",
            "samplers" : [
                {
                    "input" : 28,
                    "interpolation" : "LINEAR",
                    "output" : 35
                },
                {
                    "input" : 28,
                    "interpolation" : "LINEAR",
                    "output" : 36
                }
            ]
        }
    ],
    "materials" : [
        {
            "doubleSided" : true,
            "name" : "counter",
            "pbrMetallicRoughness" : {
                "baseColorFactor" : [
                    0.042311374098062515,
                    0.04666506126523018,
                    0.022173888981342316,
                    1
                ],
                "metallicFactor" : 0,
                "roughnessFactor" : 0.5
            }
        },
        {
            "doubleSided" : true,
            "name" : "metallic_01",
            "pbrMetallicRoughness" : {
                "baseColorFactor" : [
                    0.4000000059604645,
                    0.4000000059604645,
                    0.4000000059604645,
                    1
                ],
                "roughnessFactor" : 0.5183486342430115
            }
        }
    ],
    "meshes" : [
        {
            "name" : "Cube.007",
            "primitives" : [
                {
                    "attributes" : {
                        "POSITION" : 0,
                        "TEXCOORD_0" : 1,
                        "NORMAL" : 2
                    },
                    "indices" : 3,
                    "material" : 0
                }
            ]
        },
        {
            "name" : "Cube.008",
            "primitives" : [
                {
                    "attributes" : {
                        "POSITION" : 4,
                        "TEXCOORD_0" : 5,
                        "NORMAL" : 6
                    },
                    "indices" : 7,
                    "material" : 0
                },
                {
                    "attributes" : {
                        "POSITION" : 8,
                        "TEXCOORD_0" : 9,
                        "NORMAL" : 10
                    },
                    "indices" : 11,
                    "material" : 1
                }
            ]
        },
        {
            "name" : "Cube.010",
            "primitives" : [
                {
                    "attributes" : {
                        "POSITION" : 12,
                        "TEXCOORD_0" : 13,
                        "NORMAL" : 14
                    },
                    "indices" : 15,
                    "material" : 0
                }
            ]
        },
        {
            "name" : "Cube.011",
            "primitives" : [
                {
                    "attributes" : {
                        "POSITION" : 16,
                        "TEXCOORD_0" : 17,
                        "NORMAL" : 18
                    },
                    "indices" : 19,
                    "material" : 0
                }
            ]
        },
        {
            "name" : "Cube.012",
            "primitives" : [
                {
                    "attributes" : {
                        "POSITION" : 20,
                        "TEXCOORD_0" : 21,
                        "NORMAL" : 22
                    },
                    "indices" : 23,
                    "material" : 0
                },
                {
                    "attributes" : {
                        "POSITION" : 24,
                        "TEXCOORD_0" : 25,
                        "NORMAL" : 26
                    },
                    "indices" : 27,
                    "material" : 1
                }
            ]
        }
    ],
    "accessors" : [
        {
            "bufferView" : 0,
            "componentType" : 5126,
            "count" : 84,
            "max" : [
                -0.46352022886276245,
                4.18011474609375,
                14.696877479553223
            ],
            "min" : [
                -0.6101526021957397,
                -1,
                8.85509204864502
            ],
            "type" : "VEC3"
        },
        {
            "bufferView" : 1,
            "componentType" : 5126,
            "count" : 84,
            "type" : "VEC2"
        },
        {
            "bufferView" : 2,
            "componentType" : 5126,
            "count" : 84,
            "type" : "VEC3"
        },
        {
            "bufferView" : 3,
            "componentType" : 5123,
            "count" : 138,
            "type" : "SCALAR"
        },
        {
            "bufferView" : 4,
            "componentType" : 5126,
            "count" : 166,
            "max" : [
                0.013932175934314728,
                2.5199551582336426,
                2.421438694000244e-07
            ],
            "min" : [
                -9.444192983210087e-09,
                -2.5200119018554688,
                -1.3210558891296387
            ],
            "type" : "VEC3"
        },
        {
            "bufferView" : 5,
            "componentType" : 5126,
            "count" : 166,
            "type" : "VEC2"
        },
        {
            "bufferView" : 6,
            "componentType" : 5126,
            "count" : 166,
            "type" : "VEC3"
        },
        {
            "bufferView" : 7,
            "componentType" : 5123,
            "count" : 252,
            "type" : "SCALAR"
        },
        {
            "bufferView" : 8,
            "componentType" : 5126,
            "count" : 82,
            "max" : [
                0.0180757325142622,
                0.32970404624938965,
                -1.0216286182403564
            ],
            "min" : [
                0.010682651773095131,
                0.22336174547672272,
                -1.1421509981155396
            ],
            "type" : "VEC3"
        },
        {
            "bufferView" : 9,
            "componentType" : 5126,
            "count" : 82,
            "type" : "VEC2"
        },
        {
            "bufferView" : 10,
            "componentType" : 5126,
            "count" : 82,
            "type" : "VEC3"
        },
        {
            "bufferView" : 11,
            "componentType" : 5123,
            "count" : 84,
            "type" : "SCALAR"
        },
        {
            "bufferView" : 12,
            "componentType" : 5126,
            "count" : 176,
            "max" : [
                0.013932175934314728,
                2.5199546813964844,
                0.0009840764105319977
            ],
            "min" : [
                -9.444192983210087e-09,
                -2.520012378692627,
                -1.4608219861984253
            ],
            "type" : "VEC3"
        },
        {
            "bufferView" : 13,
            "componentType" : 5126,
            "count" : 176,
            "type" : "VEC2"
        },
        {
            "bufferView" : 14,
            "componentType" : 5126,
            "count" : 176,
            "type" : "VEC3"
        },
        {
            "bufferView" : 15,
            "componentType" : 5123,
            "count" : 300,
            "type" : "SCALAR"
        },
        {
            "bufferView" : 16,
            "componentType" : 5126,
            "count" : 178,
            "max" : [
                0.013932175934314728,
                2.5199546813964844,
                1.4608213901519775
            ],
            "min" : [
                -9.444192983210087e-09,
                -2.520012378692627,
                -0.0009846687316894531
            ],
            "type" : "VEC3"
        },
        {
            "bufferView" : 17,
            "componentType" : 5126,
            "count" : 178,
            "type" : "VEC2"
        },
        {
            "bufferView" : 18,
            "componentType" : 5126,
            "count" : 178,
            "type" : "VEC3"
        },
        {
            "bufferView" : 19,
            "componentType" : 5123,
            "count" : 294,
            "type" : "SCALAR"
        },
        {
            "bufferView" : 20,
            "componentType" : 5126,
            "count" : 184,
            "max" : [
                0.013932175934314728,
                2.5199546813964844,
                1.3210563659667969
            ],
            "min" : [
                -9.444192983210087e-09,
                -2.520012378692627,
                -7.152557373046875e-07
            ],
            "type" : "VEC3"
        },
        {
            "bufferView" : 21,
            "componentType" : 5126,
            "count" : 184,
            "type" : "VEC2"
        },
        {
            "bufferView" : 22,
            "componentType" : 5126,
            "count" : 184,
            "type" : "VEC3"
        },
        {
            "bufferView" : 23,
            "componentType" : 5123,
            "count" : 300,
            "type" : "SCALAR"
        },
        {
            "bufferView" : 24,
            "componentType" : 5126,
            "count" : 82,
            "max" : [
                0.018061308190226555,
                0.32970356941223145,
                1.1419535875320435
            ],
            "min" : [
                0.010668227449059486,
                0.22336126863956451,
                1.0214312076568604
            ],
            "type" : "VEC3"
        },
        {
            "bufferView" : 25,
            "componentType" : 5126,
            "count" : 82,
            "type" : "VEC2"
        },
        {
            "bufferView" : 26,
            "componentType" : 5126,
            "count" : 82,
            "type" : "VEC3"
        },
        {
            "bufferView" : 27,
            "componentType" : 5123,
            "count" : 84,
            "type" : "SCALAR"
        },
        {
            "bufferView" : 28,
            "componentType" : 5126,
            "count" : 51,
            "max" : [
                2.0833333333333335
            ],
            "min" : [
                0
            ],
            "type" : "SCALAR"
        },
        {
            "bufferView" : 29,
            "componentType" : 5126,
            "count" : 51,
            "type" : "VEC4"
        },
        {
            "bufferView" : 30,
            "componentType" : 5126,
            "count" : 51,
            "type" : "VEC3"
        },
        {
            "bufferView" : 31,
            "componentType" : 5126,
            "count" : 51,
            "type" : "VEC4"
        },
        {
            "bufferView" : 32,
            "componentType" : 5126,
            "count" : 51,
            "type" : "VEC3"
        },
        {
            "bufferView" : 33,
            "componentType" : 5126,
            "count" : 51,
            "type" : "VEC4"
        },
        {
            "bufferView" : 34,
            "componentType" : 5126,
            "count" : 51,
            "type" : "VEC3"
        },
        {
            "bufferView" : 35,
            "componentType" : 5126,
            "count" : 51,
            "type" : "VEC3"
        },
        {
            "bufferView" : 36,
            "componentType" : 5126,
            "count" : 51,
            "type" : "VEC4"
        }
    ],
    "bufferViews" : [
        {
            "buffer" : 0,
            "byteLength" : 1008,
            "byteOffset" : 0,
            "target" : 34962
        },
        {
            "buffer" : 0,
            "byteLength" : 672,
            "byteOffset" : 1008,
            "target" : 34962
        },
        {
            "buffer" : 0,
            "byteLength" : 1008,
            "byteOffset" : 1680,
            "target" : 34962
        },
        {
            "buffer" : 0,
            "byteLength" : 276,
            "byteOffset" : 2688,
            "target" : 34963
        },
        {
            "buffer" : 0,
            "byteLength" : 1992,
            "byteOffset" : 2964,
            "target" : 34962
        },
        {
            "buffer" : 0,
            "byteLength" : 1328,
            "byteOffset" : 4956,
            "target" : 34962
        },
        {
            "buffer" : 0,
            "byteLength" : 1992,
            "byteOffset" : 6284,
            "target" : 34962
        },
        {
            "buffer" : 0,
            "byteLength" : 504,
            "byteOffset" : 8276,
            "target" : 34963
        },
        {
            "buffer" : 0,
            "byteLength" : 984,
            "byteOffset" : 8780,
            "target" : 34962
        },
        {
            "buffer" : 0,
            "byteLength" : 656,
            "byteOffset" : 9764,
            "target" : 34962
        },
        {
            "buffer" : 0,
            "byteLength" : 984,
            "byteOffset" : 10420,
            "target" : 34962
        },
        {
            "buffer" : 0,
            "byteLength" : 168,
            "byteOffset" : 11404,
            "target" : 34963
        },
        {
            "buffer" : 0,
            "byteLength" : 2112,
            "byteOffset" : 11572,
            "target" : 34962
        },
        {
            "buffer" : 0,
            "byteLength" : 1408,
            "byteOffset" : 13684,
            "target" : 34962
        },
        {
            "buffer" : 0,
            "byteLength" : 2112,
            "byteOffset" : 15092,
            "target" : 34962
        },
        {
            "buffer" : 0,
            "byteLength" : 600,
            "byteOffset" : 17204,
            "target" : 34963
        },
        {
            "buffer" : 0,
            "byteLength" : 2136,
            "byteOffset" : 17804,
            "target" : 34962
        },
        {
            "buffer" : 0,
            "byteLength" : 1424,
            "byteOffset" : 19940,
            "target" : 34962
        },
        {
            "buffer" : 0,
            "byteLength" : 2136,
            "byteOffset" : 21364,
            "target" : 34962
        },
        {
            "buffer" : 0,
            "byteLength" : 588,
            "byteOffset" : 23500,
            "target" : 34963
        },
        {
            "buffer" : 0,
            "byteLength" : 2208,
            "byteOffset" : 24088,
            "target" : 34962
        },
        {
            "buffer" : 0,
            "byteLength" : 1472,
            "byteOffset" : 26296,
            "target" : 34962
        },
        {
            "buffer" : 0,
            "byteLength" : 2208,
            "byteOffset" : 27768,
            "target" : 34962
        },
        {
            "buffer" : 0,
            "byteLength" : 600,
            "byteOffset" : 29976,
            "target" : 34963
        },
        {
            "buffer" : 0,
            "byteLength" : 984,
            "byteOffset" : 30576,
            "target" : 34962
        },
        {
            "buffer" : 0,
            "byteLength" : 656,
            "byteOffset" : 31560,
            "target" : 34962
        },
        {
            "buffer" : 0,
            "byteLength" : 984,
            "byteOffset" : 32216,
            "target" : 34962
        },
        {
            "buffer" : 0,
            "byteLength" : 168,
            "byteOffset" : 33200,
            "target" : 34963
        },
        {
            "buffer" : 0,
            "byteLength" : 204,
            "byteOffset" : 33368
        },
        {
            "buffer" : 0,
            "byteLength" : 816,
            "byteOffset" : 33572
        },
        {
            "buffer" : 0,
            "byteLength" : 612,
            "byteOffset" : 34388
        },
        {
            "buffer" : 0,
            "byteLength" : 816,
            "byteOffset" : 35000
        },
        {
            "buffer" : 0,
            "byteLength" : 612,
            "byteOffset" : 35816
        },
        {
            "buffer" : 0,
            "byteLength" : 816,
            "byteOffset" : 36428
        },
        {
            "buffer" : 0,
            "byteLength" : 612,
            "byteOffset" : 37244
        },
        {
            "buffer" : 0,
            "byteLength" : 612,
            "byteOffset" : 37856
        },
        {
            "buffer" : 0,
            "byteLength" : 816,
            "byteOffset" : 38468
        }
    ],
    "buffers" : [
        {
            "byteLength" : 39284,
            "uri" : "data:application/octet-stream;base64,"
        }
    ]
}
